<svg width="17" height="12" viewBox="0 0 17 12" fill="none" xmlns="http://www.w3.org/2000/svg">
<path d="M5.56319 9.23084L14.4784 0.315585C14.6888 0.105195 14.9343 0 15.2148 0C15.4953 0 15.7408 0.105195 15.9512 0.315585C16.1616 0.525974 16.2668 0.775987 16.2668 1.06562C16.2668 1.35526 16.1616 1.60492 15.9512 1.81461L6.29955 11.4925C6.08916 11.7029 5.84371 11.8081 5.56319 11.8081C5.28267 11.8081 5.03721 11.7029 4.82682 11.4925L0.303447 6.96916C0.0930571 6.75877 -0.00793007 6.5091 0.000485514 6.22017C0.0089011 5.93123 0.118654 5.68122 0.329745 5.47013C0.540836 5.25904 0.790849 5.15384 1.07978 5.15455C1.36872 5.15525 1.61838 5.26044 1.82877 5.47013L5.56319 9.23084Z" fill="#34CB9D"/>
</svg>
