<svg width="20" height="21" viewBox="0 0 20 21" fill="none" xmlns="http://www.w3.org/2000/svg">
<path d="M6.7202 3.30433C7.29328 1.62725 9.61053 1.57646 10.29 3.15196L10.3475 3.30529L11.1209 5.56696C11.2981 6.08564 11.5845 6.56028 11.9608 6.95886C12.337 7.35745 12.7944 7.6707 13.302 7.8775L13.51 7.95512L15.7717 8.72754C17.4487 9.30062 17.4995 11.6179 15.925 12.2973L15.7717 12.3548L13.51 13.1282C12.9911 13.3053 12.5163 13.5917 12.1175 13.968C11.7188 14.3442 11.4054 14.8017 11.1985 15.3094L11.1209 15.5164L10.3484 17.779C9.77536 19.4561 7.45811 19.5069 6.77961 17.9323L6.7202 17.779L5.94778 15.5173C5.77066 14.9985 5.4843 14.5236 5.10803 14.1249C4.73176 13.7261 4.27433 13.4127 3.76661 13.2058L3.55961 13.1282L1.29795 12.3558C-0.380096 11.7827 -0.430888 9.46546 1.14461 8.78696L1.29795 8.72754L3.55961 7.95512C4.07829 7.77789 4.55293 7.49148 4.95152 7.11521C5.3501 6.73895 5.66336 6.28158 5.87015 5.77396L5.94778 5.56696L6.7202 3.30433ZM8.53432 3.92342L7.7619 6.18508C7.49203 6.976 7.05299 7.69858 6.47538 8.30252C5.89776 8.90645 5.19544 9.37722 4.41732 9.68204L4.17774 9.76925L1.91607 10.5417L4.17774 11.3141C4.96865 11.584 5.69124 12.023 6.29517 12.6006C6.8991 13.1782 7.36987 13.8806 7.6747 14.6587L7.7619 14.8982L8.53432 17.1599L9.30674 14.8982C9.57661 14.1073 10.0156 13.3848 10.5933 12.7808C11.1709 12.1769 11.8732 11.7061 12.6513 11.4013L12.8909 11.315L15.1526 10.5417L12.8909 9.76925C12.1 9.49937 11.3774 9.06034 10.7735 8.48272C10.1695 7.9051 9.69877 7.20278 9.39395 6.42467L9.3077 6.18508L8.53432 3.92342ZM16.201 1.73159e-07C16.3803 -2.2614e-07 16.556 0.0502917 16.7081 0.14516C16.8602 0.240029 16.9827 0.375669 17.0616 0.536667L17.1076 0.648792L17.443 1.63204L18.4272 1.96746C18.6069 2.0285 18.7644 2.14151 18.8797 2.29216C18.9951 2.44281 19.0632 2.62432 19.0753 2.81369C19.0874 3.00306 19.043 3.19176 18.9478 3.35588C18.8525 3.52 18.7107 3.65215 18.5403 3.73558L18.4272 3.78158L17.4439 4.117L17.1085 5.10121C17.0474 5.28083 16.9343 5.43825 16.7836 5.55353C16.6329 5.66882 16.4513 5.73677 16.262 5.74878C16.0726 5.76078 15.8839 5.71631 15.7199 5.62099C15.5558 5.52567 15.4238 5.38379 15.3404 5.21333L15.2944 5.10121L14.959 4.11796L13.9748 3.78254C13.7951 3.7215 13.6376 3.60849 13.5222 3.45784C13.4068 3.30719 13.3388 3.12568 13.3267 2.93631C13.3146 2.74694 13.3589 2.55824 13.4542 2.39412C13.5494 2.23 13.6913 2.09785 13.8617 2.01442L13.9748 1.96842L14.958 1.633L15.2934 0.648792C15.3581 0.45945 15.4803 0.295079 15.6431 0.178728C15.8058 0.062377 16.0009 -0.000120061 16.201 1.73159e-07Z" fill="#469DFA"/>
</svg>
