<svg width="22" height="22" viewBox="0 0 22 22" fill="none" xmlns="http://www.w3.org/2000/svg">
<path d="M9.68945 9.04492C10.1857 9.04492 10.5703 9.42949 10.5703 9.9043C10.5703 10.3791 10.1857 10.7637 9.68945 10.7637C9.23613 10.7637 8.85156 10.3791 8.85156 9.9043C8.85156 9.42949 9.23613 9.04492 9.68945 9.04492ZM15.7051 9.04492C16.2014 9.04492 16.5859 9.42949 16.5859 9.9043C16.5859 10.3791 16.2014 10.7637 15.7051 10.7637C15.2518 10.7637 14.8672 10.3791 14.8672 9.9043C14.8672 9.42949 15.2518 9.04492 15.7051 9.04492Z" fill="#7E8B9D"/>
<path d="M2.79326 7.4121C3.82666 5.99413 5.27041 5.04667 6.8538 4.61913L6.8538 4.62127C7.22119 4.21307 7.63584 3.83709 8.0999 3.50194C11.6169 0.945298 16.554 1.72518 19.1214 5.24217C21.1903 8.09959 21.1022 11.9431 18.9925 14.6738L18.9753 17.5226C18.9753 17.5914 18.9645 17.6601 18.9431 17.7246C18.8292 18.0877 18.4425 18.2875 18.0815 18.1736L15.3616 17.3164C14.6419 17.5721 13.8985 17.7181 13.1595 17.759L13.1702 17.7676C11.256 19.1619 8.74658 19.5808 6.4456 18.8203L3.71494 19.7098C3.64619 19.7312 3.57529 19.7441 3.50224 19.7441C3.12197 19.7441 2.81474 19.4369 2.81474 19.0566L2.81474 16.1777C0.921969 13.6082 0.872555 10.0568 2.79326 7.4121ZM15.0608 15.791L15.3186 15.6836L17.4456 16.3496L17.4671 14.1152L17.639 13.9219C19.4565 11.7047 19.5769 8.50995 17.8753 6.166C15.8042 3.32577 11.8339 2.69842 9.00224 4.74803C6.16201 6.81268 5.53252 10.7765 7.58427 13.5996C9.30517 15.9607 12.386 16.833 15.0608 15.791ZM4.21123 15.4258L4.3831 15.6406L4.36162 17.875L6.46709 17.166L6.7249 17.2734C7.92802 17.7203 9.21064 17.7568 10.3987 17.4238L10.403 17.4217C8.81533 16.934 7.37588 15.9457 6.33818 14.5234C4.69677 12.2611 4.43037 9.41874 5.38427 6.9953L5.37138 7.00389C4.87724 7.35838 4.42392 7.80096 4.03935 8.33592C2.47959 10.4758 2.56767 13.389 4.21123 15.4258Z" fill="#7E8B9D"/>
<path d="M12.6973 9.04492C13.1936 9.04492 13.5781 9.42949 13.5781 9.9043C13.5781 10.3791 13.1936 10.7637 12.6973 10.7637C12.2439 10.7637 11.8594 10.3791 11.8594 9.9043C11.8594 9.42949 12.2439 9.04492 12.6973 9.04492Z" fill="#7E8B9D"/>
</svg>
