<svg width="20" height="20" viewBox="0 0 20 20" fill="none" xmlns="http://www.w3.org/2000/svg">
<path d="M16.666 13.3333H11.9893L12.9252 16.1391C13.0935 16.6458 13.0085 17.2074 12.696 17.6408C12.3835 18.0741 11.8768 18.3333 11.3427 18.3333H9.99935C9.75185 18.3333 9.51768 18.2233 9.35852 18.0333L5.44185 13.3333H3.33268C2.41352 13.3333 1.66602 12.5858 1.66602 11.6666V4.16659C1.66602 3.24742 2.41352 2.49992 3.33268 2.49992H14.4218C14.7609 2.50104 15.0917 2.60505 15.3704 2.79819C15.6491 2.99133 15.8626 3.2645 15.9827 3.58159L18.2802 9.70742C18.3151 9.80099 18.3328 9.90006 18.3327 9.99992V11.6666C18.3327 12.5858 17.5852 13.3333 16.666 13.3333ZM3.33268 11.6666H4.99935V4.16659H3.33268V11.6666ZM16.666 10.1508L14.4218 4.16659H6.66602V12.1983L10.3893 16.6666H11.3443L10.0427 12.7641C10.0004 12.6388 9.98864 12.5053 10.0083 12.3746C10.028 12.2438 10.0785 12.1197 10.1557 12.0124C10.233 11.9051 10.3347 11.8178 10.4524 11.7576C10.5701 11.6975 10.7005 11.6663 10.8327 11.6666H16.666V10.1508Z" fill="#7E8B9D"/>
</svg>
