<svg width="20" height="15" viewBox="0 0 20 15" fill="none" xmlns="http://www.w3.org/2000/svg">
<path d="M8.14583 2.875C7.76828 2.875 7.39443 2.94936 7.04562 3.09385C6.69681 3.23833 6.37987 3.4501 6.1129 3.71707C5.84593 3.98404 5.63416 4.30097 5.48968 4.64979C5.3452 4.9986 5.27083 5.37245 5.27083 5.75C5.27083 6.12755 5.3452 6.5014 5.48968 6.85021C5.63416 7.19903 5.84593 7.51596 6.1129 7.78293C6.37987 8.0499 6.69681 8.26167 7.04562 8.40615C7.39443 8.55064 7.76828 8.625 8.14583 8.625C8.90833 8.625 9.6396 8.3221 10.1788 7.78293C10.7179 7.24377 11.0208 6.5125 11.0208 5.75C11.0208 4.9875 10.7179 4.25623 10.1788 3.71707C9.6396 3.1779 8.90833 2.875 8.14583 2.875ZM6.70833 5.75C6.70833 5.36875 6.85978 5.00312 7.12937 4.73353C7.39895 4.46395 7.76458 4.3125 8.14583 4.3125C8.52708 4.3125 8.89272 4.46395 9.1623 4.73353C9.43188 5.00312 9.58333 5.36875 9.58333 5.75C9.58333 6.13125 9.43188 6.49688 9.1623 6.76647C8.89272 7.03605 8.52708 7.1875 8.14583 7.1875C7.76458 7.1875 7.39895 7.03605 7.12937 6.76647C6.85978 6.49688 6.70833 6.13125 6.70833 5.75ZM0 2.15625C0 1.58438 0.227176 1.03593 0.631551 0.631551C1.03593 0.227176 1.58438 0 2.15625 0H14.1354C14.4186 0 14.699 0.0557729 14.9606 0.164135C15.2222 0.272496 15.4599 0.431325 15.6601 0.631551C15.8603 0.831778 16.0192 1.06948 16.1275 1.33109C16.2359 1.5927 16.2917 1.87309 16.2917 2.15625V9.34375C16.2917 9.62691 16.2359 9.9073 16.1275 10.1689C16.0192 10.4305 15.8603 10.6682 15.6601 10.8684C15.4599 11.0687 15.2222 11.2275 14.9606 11.3359C14.699 11.4442 14.4186 11.5 14.1354 11.5H2.15625C1.58438 11.5 1.03593 11.2728 0.631551 10.8684C0.227176 10.4641 0 9.91562 0 9.34375V2.15625ZM2.15625 1.4375C1.96563 1.4375 1.78281 1.51323 1.64802 1.64802C1.51323 1.78281 1.4375 1.96563 1.4375 2.15625V2.875H2.15625C2.34687 2.875 2.52969 2.79927 2.66448 2.66448C2.79927 2.52969 2.875 2.34687 2.875 2.15625V1.4375H2.15625ZM1.4375 7.1875H2.15625C2.72812 7.1875 3.27657 7.41468 3.68095 7.81905C4.08532 8.22343 4.3125 8.77188 4.3125 9.34375V10.0625H11.9792V9.34375C11.9792 8.77188 12.2063 8.22343 12.6107 7.81905C13.0151 7.41468 13.5635 7.1875 14.1354 7.1875H14.8542V4.3125H14.1354C13.5635 4.3125 13.0151 4.08532 12.6107 3.68095C12.2063 3.27657 11.9792 2.72812 11.9792 2.15625V1.4375H4.3125V2.15625C4.3125 2.43941 4.25673 2.7198 4.14837 2.98141C4.04 3.24302 3.88118 3.48072 3.68095 3.68095C3.48072 3.88118 3.24302 4.04 2.98141 4.14837C2.7198 4.25673 2.43941 4.3125 2.15625 4.3125H1.4375V7.1875ZM14.8542 2.875V2.15625C14.8542 1.96563 14.7784 1.78281 14.6437 1.64802C14.5089 1.51323 14.326 1.4375 14.1354 1.4375H13.4167V2.15625C13.4167 2.553 13.7387 2.875 14.1354 2.875H14.8542ZM14.8542 8.625H14.1354C13.9448 8.625 13.762 8.70073 13.6272 8.83552C13.4924 8.97031 13.4167 9.15313 13.4167 9.34375V10.0625H14.1354C14.326 10.0625 14.5089 9.98677 14.6437 9.85198C14.7784 9.71719 14.8542 9.53437 14.8542 9.34375V8.625ZM1.4375 9.34375C1.4375 9.7405 1.7595 10.0625 2.15625 10.0625H2.875V9.34375C2.875 9.15313 2.79927 8.97031 2.66448 8.83552C2.52969 8.70073 2.34687 8.625 2.15625 8.625H1.4375V9.34375ZM2.30096 12.9375C2.55337 13.3747 2.91644 13.7377 3.35366 13.99C3.79089 14.2424 4.28685 14.3752 4.79167 14.375H14.6146C15.2124 14.375 15.8043 14.2573 16.3566 14.0285C16.9089 13.7997 17.4107 13.4644 17.8334 13.0417C18.2561 12.619 18.5914 12.1172 18.8202 11.5649C19.0489 11.0126 19.1667 10.4207 19.1667 9.82292V4.79167C19.1668 4.28685 19.0341 3.79089 18.7817 3.35366C18.5294 2.91644 18.1664 2.55337 17.7292 2.30096V9.82292C17.7292 10.649 17.401 11.4412 16.8169 12.0253C16.2328 12.6094 15.4406 12.9375 14.6146 12.9375H2.30096Z" fill="#469DFA"/>
</svg>
