<svg width="17" height="17" viewBox="0 0 17 17" fill="none" xmlns="http://www.w3.org/2000/svg">
<path d="M8.125 15.625C12.2671 15.625 15.625 12.2671 15.625 8.125C15.625 3.98286 12.2671 0.625 8.125 0.625C3.98286 0.625 0.625 3.98286 0.625 8.125C0.625 12.2671 3.98286 15.625 8.125 15.625Z" stroke="#469DFA" stroke-width="1.25" stroke-linecap="round" stroke-linejoin="round"/>
<path d="M11.125 5.875V5.8825M5.125 5.875V5.8825" stroke="#469DFA" stroke-width="2.08333" stroke-linecap="round" stroke-linejoin="round"/>
<path d="M5.125 10C5.4743 10.4657 5.92724 10.8437 6.44795 11.1041C6.96866 11.3645 7.54283 11.5 8.125 11.5C8.70717 11.5 9.28134 11.3645 9.80205 11.1041C10.3228 10.8437 10.7757 10.4657 11.125 10" stroke="#469DFA" stroke-width="1.25" stroke-linecap="round" stroke-linejoin="round"/>
</svg>
