<svg width="17" height="19" viewBox="0 0 17 19" fill="none" xmlns="http://www.w3.org/2000/svg">
<path d="M3.35547 0.833374H13.3555" stroke="#469DFA" stroke-width="1.66667" stroke-linecap="round"/>
<path d="M2.8457 11.6667L5.8632 5.43296V0.833374H10.8674V5.43296L13.874 11.6667" stroke="#469DFA" stroke-width="1.66667" stroke-linecap="round" stroke-linejoin="round"/>
<path d="M1.60356 17.3637C1.27801 17.2061 1.02839 16.9257 0.909614 16.5841C0.790841 16.2424 0.812643 15.8676 0.970224 15.5421L2.84647 11.6666C2.84647 11.6666 5.85606 13.75 8.35606 11.6666C10.8561 9.58332 13.8752 11.6666 13.8752 11.6666L15.7461 15.5437C15.8464 15.7517 15.8922 15.9817 15.8794 16.2121C15.8665 16.4426 15.7954 16.6661 15.6726 16.8616C15.5498 17.0571 15.3794 17.2182 15.1773 17.3299C14.9753 17.4415 14.7482 17.5001 14.5173 17.5H2.19772C1.99189 17.5 1.78897 17.4533 1.60356 17.3637Z" stroke="#469DFA" stroke-width="1.66667" stroke-linejoin="round"/>
</svg>
