<svg width="18" height="15" viewBox="0 0 18 15" fill="none" xmlns="http://www.w3.org/2000/svg">
<path fill-rule="evenodd" clip-rule="evenodd" d="M8.95801 4.16663C8.12921 4.16663 7.33435 4.49587 6.7483 5.08192C6.16225 5.66797 5.83301 6.46282 5.83301 7.29163C5.83301 8.12043 6.16225 8.91528 6.7483 9.50133C7.33435 10.0874 8.12921 10.4166 8.95801 10.4166C9.78681 10.4166 10.5817 10.0874 11.1677 9.50133C11.7538 8.91528 12.083 8.12043 12.083 7.29163C12.083 6.46282 11.7538 5.66797 11.1677 5.08192C10.5817 4.49587 9.78681 4.16663 8.95801 4.16663ZM7.08301 7.29163C7.08301 6.79434 7.28055 6.31743 7.63218 5.9658C7.98381 5.61417 8.46073 5.41663 8.95801 5.41663C9.45529 5.41663 9.9322 5.61417 10.2838 5.9658C10.6355 6.31743 10.833 6.79434 10.833 7.29163C10.833 7.78891 10.6355 8.26582 10.2838 8.61745C9.9322 8.96908 9.45529 9.16663 8.95801 9.16663C8.46073 9.16663 7.98381 8.96908 7.63218 8.61745C7.28055 8.26582 7.08301 7.78891 7.08301 7.29163Z" fill="white"/>
<path fill-rule="evenodd" clip-rule="evenodd" d="M8.95833 0C5.19667 0 2.6625 2.25333 1.19167 4.16417L1.16583 4.19833C0.8325 4.63083 0.526667 5.02833 0.319167 5.49833C0.0966667 6.0025 0 6.55167 0 7.29167C0 8.03167 0.0966667 8.58083 0.319167 9.085C0.5275 9.555 0.833333 9.95333 1.16583 10.385L1.1925 10.4192C2.6625 12.33 5.19667 14.5833 8.95833 14.5833C12.72 14.5833 15.2542 12.33 16.725 10.4192L16.7508 10.385C17.0842 9.95333 17.39 9.555 17.5975 9.085C17.82 8.58083 17.9167 8.03167 17.9167 7.29167C17.9167 6.55167 17.82 6.0025 17.5975 5.49833C17.3892 5.02833 17.0833 4.63083 16.7508 4.19833L16.7242 4.16417C15.2542 2.25333 12.72 0 8.95833 0ZM2.18333 4.92667C3.54 3.1625 5.75 1.25 8.95833 1.25C12.1667 1.25 14.3758 3.1625 15.7333 4.92667C16.1 5.40167 16.3133 5.685 16.4542 6.00333C16.5858 6.30167 16.6667 6.66583 16.6667 7.29167C16.6667 7.9175 16.5858 8.28167 16.4542 8.58C16.3133 8.89833 16.0992 9.18167 15.7342 9.65667C14.375 11.4208 12.1667 13.3333 8.95833 13.3333C5.75 13.3333 3.54083 11.4208 2.18333 9.65667C1.81667 9.18167 1.60333 8.89833 1.4625 8.58C1.33083 8.28167 1.25 7.9175 1.25 7.29167C1.25 6.66583 1.33083 6.30167 1.4625 6.00333C1.60333 5.685 1.81833 5.40167 2.18333 4.92667Z" fill="white"/>
</svg>
