<svg width="16" height="18" viewBox="0 0 16 18" fill="none" xmlns="http://www.w3.org/2000/svg">
<path fill-rule="evenodd" clip-rule="evenodd" d="M6.1822 0L7.2322 0.63C8.56396 1.41723 9.58705 2.63553 10.1322 4.08333C10.3172 3.66667 10.5372 3.2625 10.7414 2.85417L11.5589 3.67167C13.3939 5.50667 15.1364 8.25667 15.1364 10.9275C15.1364 14.5092 12.928 16.78 9.3947 17.1725L8.23637 17.3008L8.4897 16.1633C8.6872 15.2733 8.72303 14.6917 8.68137 14.2842C8.63137 13.7717 8.38803 13.3692 8.0847 12.9692C7.7947 12.5858 7.5072 12.2017 7.2772 11.7775C6.33137 12.525 5.9647 13.2 5.8472 13.7558C5.6972 14.4675 5.9097 15.195 6.29803 15.9717L6.98303 17.3417L5.46137 17.1725C3.3147 16.9342 1.1997 15.5 0.366367 13.4075C-0.504466 11.2183 0.111367 8.56917 2.9247 6.13083C4.79137 4.51333 5.7797 2.41583 6.1822 0ZM7.2922 2.75C6.6572 4.53333 5.43803 6.15833 4.01553 7.39083C1.5897 9.49333 1.3722 11.4275 1.91553 12.7908C2.3197 13.8075 3.1922 14.6433 4.22637 15.1175C4.10554 14.5559 4.10214 13.9754 4.21637 13.4125C4.48803 12.1242 5.4147 10.9167 7.1947 9.80417L8.0922 9.24333L8.4272 10.2475C8.72053 11.1275 9.32887 11.75 9.8047 12.5225C10.328 13.3725 10.428 14.3475 10.3214 15.3208C12.5047 14.775 13.4697 13.1192 13.4697 10.9275C13.4697 9.07583 12.353 7.25917 11.2447 5.83917C10.788 6.8625 9.82553 7.2225 8.88637 7.6925V6.34417C8.88637 5.20333 8.4222 3.8125 7.2922 2.75083V2.75Z" fill="#FFB92C"/>
</svg>
