<svg width="19" height="21" viewBox="0 0 19 21" fill="none" xmlns="http://www.w3.org/2000/svg">
<path d="M12.9375 8.625C11.9272 8.6254 10.935 8.89402 10.0625 9.40341V5.03125C10.0625 3.69688 9.53242 2.41716 8.58888 1.47362C7.64534 0.530077 6.36562 0 5.03125 0C3.69688 0 2.41716 0.530077 1.47362 1.47362C0.530077 2.41716 1.78381e-07 3.69688 1.58497e-07 5.03125V15.0938C-0.000257184 16.1192 0.312866 17.1202 0.897419 17.9627C1.48197 18.8052 2.31003 19.4489 3.27067 19.8077C4.2313 20.1664 5.27863 20.223 6.27232 19.9699C7.26602 19.7167 8.15863 19.166 8.83056 18.3914C9.4934 19.0692 10.3136 19.5726 11.2181 19.8567C12.1227 20.1407 13.0834 20.1966 14.0148 20.0193C14.9461 19.8421 15.8192 19.4372 16.5562 18.8408C17.2931 18.2443 17.8711 17.4749 18.2386 16.6009C18.6061 15.727 18.7518 14.7757 18.6625 13.8318C18.5733 12.888 18.252 11.9808 17.7272 11.1912C17.2024 10.4016 16.4904 9.75413 15.6547 9.30638C14.819 8.85863 13.8856 8.62455 12.9375 8.625ZM12.9375 10.0625C13.9557 10.0642 14.9405 10.4259 15.7178 11.0835C16.4951 11.7412 17.0149 12.6524 17.1853 13.6562H8.68969C8.86009 12.6524 9.37989 11.7412 10.1572 11.0835C10.9345 10.4259 11.9193 10.0642 12.9375 10.0625ZM1.4375 5.03125C1.4375 4.07813 1.81613 3.16404 2.49009 2.49009C3.16404 1.81613 4.07813 1.4375 5.03125 1.4375C5.98437 1.4375 6.89846 1.81613 7.57241 2.49009C8.24637 3.16404 8.625 4.07813 8.625 5.03125V9.34375H1.4375V5.03125ZM5.03125 18.6875C4.07848 18.6864 3.16506 18.3074 2.49135 17.6337C1.81763 16.9599 1.43864 16.0465 1.4375 15.0938V10.7812H8.45609C7.73485 11.6754 7.29949 12.766 7.20668 13.911C7.11386 15.056 7.3679 16.2025 7.93572 17.2011C7.6036 17.6609 7.16718 18.0353 6.66229 18.2937C6.15739 18.5521 5.59842 18.687 5.03125 18.6875ZM12.9375 18.6875C11.9193 18.6858 10.9345 18.3241 10.1572 17.6665C9.37989 17.0088 8.86009 16.0976 8.68969 15.0938H17.1853C17.0149 16.0976 16.4951 17.0088 15.7178 17.6665C14.9405 18.3241 13.9557 18.6858 12.9375 18.6875Z" fill="#469DFA"/>
</svg>
