<svg width="15" height="15" viewBox="0 0 15 15" fill="none" xmlns="http://www.w3.org/2000/svg">
<path d="M7.5 15C11.6423 15 15 11.6423 15 7.5C15 7.15275 14.4795 7.095 14.3002 7.39275C13.9179 8.02601 13.3965 8.56395 12.7755 8.96585C12.1545 9.36775 11.4502 9.62305 10.7159 9.71243C9.98158 9.8018 9.23657 9.7229 8.53729 9.48171C7.838 9.24051 7.20277 8.84334 6.67971 8.32029C6.15666 7.79723 5.75949 7.162 5.51829 6.46271C5.2771 5.76343 5.1982 5.01842 5.28757 4.28413C5.37695 3.54983 5.63225 2.8455 6.03415 2.22449C6.43605 1.60348 6.97399 1.08207 7.60725 0.69975C7.905 0.51975 7.84725 0 7.5 0C3.35775 0 0 3.35775 0 7.5C0 11.6423 3.35775 15 7.5 15Z" fill="#469DFA"/>
</svg>
