<svg width="15" height="17" viewBox="0 0 15 17" fill="none" xmlns="http://www.w3.org/2000/svg">
<path d="M13.215 10.8175C12.9664 10.4203 12.8344 9.96113 12.8342 9.4925V6.0225C12.8342 4.59099 12.2655 3.21812 11.2533 2.20589C10.2411 1.19366 8.86817 0.625 7.43667 0.625C6.00516 0.625 4.63229 1.19366 3.62006 2.20589C2.60783 3.21812 2.03917 4.59099 2.03917 6.0225V9.49083C2.03923 9.96003 1.90726 10.4198 1.65834 10.8175L0.751669 12.2675C0.672829 12.3936 0.629192 12.5386 0.625287 12.6873C0.621383 12.836 0.657354 12.983 0.729465 13.1131C0.801576 13.2432 0.9072 13.3517 1.03537 13.4272C1.16354 13.5027 1.30958 13.5425 1.45834 13.5425H13.415C13.5638 13.5425 13.7098 13.5027 13.838 13.4272C13.9661 13.3517 14.0718 13.2432 14.1439 13.1131C14.216 12.983 14.252 12.836 14.248 12.6873C14.2441 12.5386 14.2005 12.3936 14.1217 12.2675L13.215 10.8175Z" stroke="#475467" stroke-width="1.25" stroke-linecap="round" stroke-linejoin="round"/>
<path d="M5.77002 16.0425H9.10335" stroke="#475467" stroke-width="1.25" stroke-linecap="round"/>
</svg>
