<svg width="20" height="16" viewBox="0 0 20 16" fill="none" xmlns="http://www.w3.org/2000/svg">
<path d="M18.2261 9.87521C18.3682 9.52359 18.4427 9.14493 18.4427 8.75653C18.4427 7.32051 17.4245 6.1179 16.0722 5.83222C16.1143 5.59238 16.1389 5.34893 16.1455 5.10296L16.1464 5.07451C16.1476 5.03862 16.1486 5.00284 16.1486 4.96665C16.1486 4.93067 16.1475 4.89488 16.1464 4.859L16.1455 4.83125C16.1105 3.53315 15.579 2.31827 14.6485 1.41069C13.716 0.500987 12.485 0 11.1821 0C10.7657 0 10.4282 0.337543 10.4282 0.753894C10.4282 1.17024 10.7657 1.50779 11.1821 1.50779C11.3116 1.50779 11.417 1.61323 11.417 1.7428C11.417 1.87247 11.3115 1.97802 11.182 1.97802H6.91894C5.27102 1.97802 3.9304 3.31874 3.9304 4.96665C3.9304 5.25534 3.97141 5.53851 4.05062 5.8089C2.63762 6.04563 1.55744 7.27729 1.55744 8.75643C1.55744 9.14483 1.63193 9.52349 1.77386 9.875C0.713988 10.4131 0 11.5145 0 12.7626C0 14.5475 1.4521 15.9996 3.23692 15.9996H16.7631C18.5479 15.9996 20 14.5475 20 12.7626C20 11.5147 19.2859 10.4133 18.2261 9.87521ZM6.91894 3.4859H11.1821C12.0681 3.4859 12.8019 2.82097 12.9109 1.96384C13.9208 2.54213 14.6046 3.61678 14.6383 4.87277L14.6395 4.90906C14.6401 4.92825 14.6409 4.94745 14.6409 4.96675C14.6409 4.98605 14.6401 5.00525 14.6395 5.02445L14.6383 5.06134C14.6319 5.30138 14.6003 5.5376 14.5458 5.76789H5.67401C5.52061 5.53077 5.43799 5.25444 5.43799 4.96665C5.43819 4.15024 6.10242 3.4859 6.91894 3.4859ZM4.54608 7.27578H5.31495H15.0972H15.4539C16.2705 7.27578 16.9349 7.94001 16.9349 8.75653C16.9349 9.03889 16.8548 9.31059 16.7065 9.5453H3.29351C3.14525 9.31069 3.06523 9.03889 3.06523 8.75653C3.06523 7.94001 3.72956 7.27578 4.54608 7.27578ZM16.7631 14.4919H3.23692C2.28349 14.4919 1.50779 13.7161 1.50779 12.7626C1.50779 11.9027 2.14237 11.1744 2.98874 11.0531H17.011C17.8575 11.1744 18.4921 11.9028 18.4921 12.7626C18.4922 13.7161 17.7165 14.4919 16.7631 14.4919Z" fill="#469DFA"/>
</svg>
