<svg width="20" height="20" viewBox="0 0 20 20" fill="none" xmlns="http://www.w3.org/2000/svg">
<path d="M18.2261 11.8753C18.3682 11.5237 18.4427 11.1451 18.4427 10.7566C18.4427 9.32063 17.4245 8.11802 16.0722 7.83235C16.1143 7.59251 16.1389 7.34905 16.1455 7.10308L16.1464 7.07463C16.1476 7.03875 16.1486 7.00296 16.1486 6.96677C16.1486 6.93079 16.1475 6.895 16.1464 6.85912L16.1455 6.83138C16.1105 5.53327 15.579 4.3184 14.6485 3.41081C13.716 2.50111 12.485 2.00012 11.1821 2.00012C10.7657 2.00012 10.4282 2.33767 10.4282 2.75402C10.4282 3.17037 10.7657 3.50791 11.1821 3.50791C11.3116 3.50791 11.417 3.61335 11.417 3.74292C11.417 3.87259 11.3115 3.97814 11.182 3.97814H6.91894C5.27102 3.97814 3.9304 5.31886 3.9304 6.96677C3.9304 7.25547 3.97141 7.53863 4.05062 7.80902C2.63762 8.04575 1.55744 9.27741 1.55744 10.7565C1.55744 11.145 1.63193 11.5236 1.77386 11.8751C0.713988 12.4132 0 13.5146 0 14.7627C0 16.5477 1.4521 17.9998 3.23692 17.9998H16.7631C18.5479 17.9998 20 16.5477 20 14.7627C20 13.5148 19.2859 12.4134 18.2261 11.8753ZM6.91894 5.48603H11.1821C12.0681 5.48603 12.8019 4.82109 12.9109 3.96397C13.9208 4.54225 14.6046 5.6169 14.6383 6.87289L14.6395 6.90918C14.6401 6.92838 14.6409 6.94758 14.6409 6.96688C14.6409 6.98618 14.6401 7.00537 14.6395 7.02457L14.6383 7.06146C14.6319 7.3015 14.6003 7.53772 14.5458 7.76801H5.67401C5.52061 7.53089 5.43799 7.25456 5.43799 6.96677C5.43819 6.15036 6.10242 5.48603 6.91894 5.48603ZM4.54608 9.2759H5.31495H15.0972H15.4539C16.2705 9.2759 16.9349 9.94013 16.9349 10.7566C16.9349 11.039 16.8548 11.3107 16.7065 11.5454H3.29351C3.14525 11.3108 3.06523 11.039 3.06523 10.7566C3.06523 9.94013 3.72956 9.2759 4.54608 9.2759ZM16.7631 16.492H3.23692C2.28349 16.492 1.50779 15.7163 1.50779 14.7627C1.50779 13.9028 2.14237 13.1745 2.98874 13.0532H17.011C17.8575 13.1745 18.4921 13.9029 18.4921 14.7627C18.4922 15.7163 17.7165 16.492 16.7631 16.492Z" fill="#ECA740"/>
</svg>
