<svg width="21" height="17" viewBox="0 0 21 17" fill="none" xmlns="http://www.w3.org/2000/svg">
<path d="M3.75 4.125C3.75 3.42881 4.02656 2.76113 4.51884 2.26884C5.01113 1.77656 5.67881 1.5 6.375 1.5C7.07119 1.5 7.73887 1.77656 8.23115 2.26884C8.72344 2.76113 9 3.42881 9 4.125C9 4.82119 8.72344 5.48887 8.23115 5.98116C7.73887 6.47344 7.07119 6.75 6.375 6.75C5.67881 6.75 5.01113 6.47344 4.51884 5.98116C4.02656 5.48887 3.75 4.82119 3.75 4.125ZM6.375 0C5.28098 0 4.23177 0.434597 3.45818 1.20818C2.6846 1.98177 2.25 3.03098 2.25 4.125C2.25 5.21902 2.6846 6.26823 3.45818 7.04182C4.23177 7.8154 5.28098 8.25 6.375 8.25C7.46902 8.25 8.51823 7.8154 9.29181 7.04182C10.0654 6.26823 10.5 5.21902 10.5 4.125C10.5 3.03098 10.0654 1.98177 9.29181 1.20818C8.51823 0.434597 7.46902 0 6.375 0ZM14.25 5.25C14.25 4.85218 14.408 4.47064 14.6893 4.18934C14.9706 3.90804 15.3522 3.75 15.75 3.75C16.1478 3.75 16.5294 3.90804 16.8107 4.18934C17.092 4.47064 17.25 4.85218 17.25 5.25C17.25 5.64782 17.092 6.02936 16.8107 6.31066C16.5294 6.59196 16.1478 6.75 15.75 6.75C15.3522 6.75 14.9706 6.59196 14.6893 6.31066C14.408 6.02936 14.25 5.64782 14.25 5.25ZM15.75 2.25C14.9543 2.25 14.1913 2.56607 13.6287 3.12868C13.0661 3.69129 12.75 4.45435 12.75 5.25C12.75 6.04565 13.0661 6.80871 13.6287 7.37132C14.1913 7.93393 14.9543 8.25 15.75 8.25C16.5456 8.25 17.3087 7.93393 17.8713 7.37132C18.4339 6.80871 18.75 6.04565 18.75 5.25C18.75 4.45435 18.4339 3.69129 17.8713 3.12868C17.3087 2.56607 16.5456 2.25 15.75 2.25ZM0 12C0 11.4033 0.237053 10.831 0.65901 10.409C1.08097 9.98705 1.65326 9.75 2.25 9.75H10.5C11.0967 9.75 11.669 9.98705 12.091 10.409C12.5129 10.831 12.75 11.4033 12.75 12V12.1695C12.7483 12.2394 12.7432 12.3093 12.735 12.3787C12.72 12.5085 12.6922 12.6847 12.6375 12.8932C12.4927 13.443 12.2378 13.9577 11.8882 14.406C11.0107 15.5325 9.36 16.5 6.375 16.5C3.39 16.5 1.74 15.5325 0.86175 14.406C0.511924 13.9577 0.256769 13.4431 0.11175 12.8932C0.0548585 12.6725 0.0182069 12.4471 0.00225002 12.2197L0.000749946 12.1695V12.1522L0 12.1462V12ZM1.5 12.1335V12.1425C1.5 12.1555 1.50225 12.179 1.50675 12.213C1.51425 12.2805 1.53 12.3855 1.56375 12.516C1.63125 12.777 1.7685 13.1295 2.0445 13.4843C2.57325 14.1623 3.735 15 6.375 15C9.015 15 10.1775 14.1622 10.7055 13.485C10.9292 13.1977 11.0925 12.8681 11.1855 12.516C11.2175 12.3935 11.239 12.2686 11.25 12.1425L11.2507 12.1335V12C11.2507 11.8011 11.1717 11.6103 11.0311 11.4697C10.8904 11.329 10.6997 11.25 10.5007 11.25H2.25C2.05109 11.25 1.86032 11.329 1.71967 11.4697C1.57902 11.6103 1.5 11.8011 1.5 12V12.1335ZM13.1077 14.619C13.8052 14.856 14.673 15 15.75 15C18.1507 15 19.515 14.2852 20.2597 13.4062C20.622 12.9788 20.8072 12.5453 20.901 12.2123C20.9514 12.0337 20.9839 11.8505 20.9977 11.6655L20.9985 11.6385L20.9992 11.622V11.5935C20.9993 11.3514 20.9518 11.1117 20.8592 10.8881C20.7666 10.6644 20.6309 10.4612 20.4598 10.29C20.2887 10.1188 20.0855 9.983 19.8619 9.89034C19.6382 9.79769 19.3986 9.75 19.1565 9.75H13.0147C13.3897 10.1693 13.662 10.6823 13.791 11.25H19.1565C19.344 11.25 19.4955 11.3992 19.5 11.5845L19.497 11.6175C19.488 11.6808 19.475 11.7434 19.458 11.805C19.4115 11.97 19.3155 12.201 19.1152 12.4373C18.735 12.8865 17.8492 13.5 15.75 13.5C14.8762 13.5 14.2132 13.3935 13.7092 13.2375C13.5762 13.7245 13.3736 14.1898 13.1077 14.619Z" fill="#469DFA"/>
</svg>
