<svg width="11" height="11" viewBox="0 0 11 11" fill="none" xmlns="http://www.w3.org/2000/svg">
<path d="M10.8927 0.833377C10.8927 0.612407 10.8049 0.400496 10.6487 0.244247C10.4924 0.0879973 10.2805 0.000202643 10.0595 0.00016941L3.3927 0.000169389C3.28206 -0.00175358 3.17215 0.0183767 3.06937 0.0593858C2.9666 0.100395 2.87302 0.161462 2.7941 0.239023C2.71518 0.316584 2.6525 0.409086 2.60971 0.511132C2.56692 0.613177 2.54488 0.722723 2.54488 0.833377C2.54488 0.94403 2.56692 1.05358 2.60971 1.15562C2.6525 1.25767 2.71518 1.35017 2.7941 1.42773C2.87302 1.50529 2.9666 1.56636 3.06937 1.60737C3.17215 1.64838 3.28206 1.66851 3.3927 1.66658L8.04782 1.66658L0.244306 9.4701C0.0880252 9.62638 0.000226867 9.83834 0.000227541 10.0594C0.000227541 10.2804 0.0880248 10.4923 0.244305 10.6486C0.400586 10.8049 0.612547 10.8927 0.833561 10.8927C1.05457 10.8927 1.26654 10.8049 1.42282 10.6486L9.22633 2.8451L9.22633 7.50022C9.23013 7.71869 9.31958 7.92693 9.47542 8.08009C9.63127 8.23325 9.84103 8.31907 10.0595 8.31907C10.278 8.31907 10.4878 8.23325 10.6437 8.08009C10.7995 7.92693 10.8889 7.71869 10.8927 7.50022L10.8927 0.833377Z" fill="#469DFA"/>
</svg>
