<svg width="21" height="19" viewBox="0 0 21 19" fill="none" xmlns="http://www.w3.org/2000/svg">
<path d="M19.5 7.166C19.4988 7.80242 19.3005 8.42284 18.9323 8.94197C18.5642 9.46109 18.0442 9.85341 17.444 10.065C17.1157 10.1883 16.7677 10.2509 16.417 10.25C15.7806 10.2488 15.1602 10.0505 14.641 9.68232C14.1219 9.31416 13.7296 8.79422 13.518 8.194C13.3946 7.86535 13.3319 7.51704 13.333 7.166C13.336 7.517 13.273 7.866 13.148 8.194C12.9365 8.79406 12.5443 9.31388 12.0254 9.68203C11.5065 10.0502 10.8862 10.2486 10.25 10.25C9.61375 10.2486 8.99355 10.0502 8.47463 9.68203C7.95571 9.31388 7.56353 8.79406 7.352 8.194C7.22862 7.86535 7.16594 7.51704 7.167 7.166C7.169 7.517 7.107 7.866 6.982 8.194C6.77041 8.79422 6.37809 9.31416 5.85896 9.68232C5.33984 10.0505 4.71942 10.2488 4.083 10.25C3.733 10.252 3.383 10.19 3.056 10.065C2.45578 9.85341 1.93584 9.46109 1.56768 8.94197C1.19951 8.42284 1.0012 7.80242 1 7.166L1.462 5.543L2.572 2.377C2.71343 1.97455 2.97632 1.62593 3.32436 1.37928C3.67239 1.13262 4.08842 1.0001 4.515 1H15.985C16.4114 1.00031 16.8272 1.13293 17.1751 1.37957C17.5229 1.62621 17.7856 1.97471 17.927 2.377L19.037 5.543L19.5 7.166Z" stroke="#469DFA" stroke-width="2" stroke-linecap="round" stroke-linejoin="round"/>
<path d="M17.4447 10.0649V15.3889C17.4444 15.9339 17.2278 16.4564 16.8425 16.8418C16.4572 17.2271 15.9346 17.4437 15.3897 17.4439H5.11069C4.84074 17.4441 4.57341 17.391 4.32397 17.2878C4.07453 17.1846 3.84787 17.0332 3.65694 16.8424C3.46601 16.6516 3.31455 16.425 3.21121 16.1756C3.10787 15.9262 3.05469 15.6589 3.05469 15.3889V10.0649M7.16769 14.3609H13.3337" stroke="#469DFA" stroke-width="2" stroke-linecap="round" stroke-linejoin="round"/>
</svg>
