<svg width="16" height="16" viewBox="0 0 16 16" fill="none" xmlns="http://www.w3.org/2000/svg">
<path fill-rule="evenodd" clip-rule="evenodd" d="M7.78 5.19933C7.83389 5.31379 7.91924 5.41055 8.02608 5.47831C8.13291 5.54607 8.25682 5.58204 8.38333 5.582H11.8967C12.0735 5.582 12.243 5.51176 12.3681 5.38674C12.4931 5.26171 12.5633 5.09214 12.5633 4.91533C12.5633 4.73852 12.4931 4.56895 12.3681 4.44393C12.243 4.3189 12.0735 4.24867 11.8967 4.24867H9.8L12.4107 1.09133C12.4912 0.993919 12.5423 0.875631 12.5582 0.750257C12.574 0.624884 12.5539 0.497588 12.5002 0.383209C12.4464 0.26883 12.3613 0.172078 12.2547 0.104231C12.1481 0.0363834 12.0244 0.000235349 11.898 0L8.384 0C8.20719 0 8.03762 0.0702379 7.9126 0.195262C7.78757 0.320286 7.71733 0.489856 7.71733 0.666667C7.71733 0.843478 7.78757 1.01305 7.9126 1.13807C8.03762 1.2631 8.20719 1.33333 8.384 1.33333H10.4813L7.87 4.49C7.78929 4.58755 7.73803 4.70606 7.72221 4.83168C7.70639 4.9573 7.72666 5.08482 7.78067 5.19933M0.0633333 10.896C0.117227 11.0105 0.202576 11.1072 0.309411 11.175C0.416246 11.2427 0.540155 11.2787 0.666667 11.2787H5.37867C5.55548 11.2787 5.72505 11.2084 5.85007 11.0834C5.9751 10.9584 6.04533 10.7888 6.04533 10.612C6.04533 10.4352 5.9751 10.2656 5.85007 10.1406C5.72505 10.0156 5.55548 9.94533 5.37867 9.94533H2.08333L5.89267 5.34C5.97324 5.2425 6.02441 5.12409 6.0402 4.99859C6.056 4.8731 6.03577 4.7457 5.98188 4.63127C5.92798 4.51685 5.84265 4.42011 5.73584 4.35236C5.62903 4.28461 5.50515 4.24865 5.37867 4.24867H0.666667C0.489856 4.24867 0.320286 4.3189 0.195262 4.44393C0.0702379 4.56895 0 4.73852 0 4.91533C0 5.09214 0.0702379 5.26171 0.195262 5.38674C0.320286 5.51176 0.489856 5.582 0.666667 5.582H3.962L0.153333 10.1867C0.0726467 10.2841 0.0213395 10.4024 0.00540312 10.5279C-0.0105333 10.6534 0.00955888 10.7815 0.0633333 10.896ZM9.52333 16C9.39685 16 9.27297 15.9641 9.16616 15.8963C9.05935 15.8286 8.97402 15.7318 8.92012 15.6174C8.86623 15.503 8.846 15.3756 8.8618 15.2501C8.87759 15.1246 8.92876 15.0062 9.00933 14.9087L13.6907 9.24867H9.52267C9.34586 9.24867 9.17629 9.17843 9.05126 9.0534C8.92624 8.92838 8.856 8.75881 8.856 8.582C8.856 8.40519 8.92624 8.23562 9.05126 8.1106C9.17629 7.98557 9.34586 7.91533 9.52267 7.91533H15.1073C15.2336 7.91555 15.3573 7.95164 15.4639 8.0194C15.5705 8.08717 15.6556 8.18382 15.7094 8.2981C15.7632 8.41238 15.7834 8.53959 15.7677 8.66492C15.752 8.79025 15.701 8.90853 15.6207 9.006L10.9393 14.6667H15.1073C15.2841 14.6667 15.4537 14.7369 15.5787 14.8619C15.7038 14.987 15.774 15.1565 15.774 15.3333C15.774 15.5101 15.7038 15.6797 15.5787 15.8047C15.4537 15.9298 15.2841 16 15.1073 16H9.52333Z" fill="#469DFA"/>
</svg>
