<svg width="22" height="23" viewBox="0 0 22 23" fill="none" xmlns="http://www.w3.org/2000/svg">
<path fill-rule="evenodd" clip-rule="evenodd" d="M10.0625 1.02679C10.0625 0.46 10.5225 0 11.0893 0H16.0179C16.2085 0 16.3955 0.0530999 16.5577 0.15335C16.7199 0.253599 16.851 0.397038 16.9362 0.567593C17.0215 0.738148 17.0576 0.929081 17.0405 1.119C17.0234 1.30891 16.9537 1.49031 16.8393 1.64286L13.1429 6.57143H16.0179C16.2902 6.57143 16.5513 6.67961 16.7439 6.87217C16.9365 7.06473 17.0446 7.32589 17.0446 7.59821C17.0446 7.87053 16.9365 8.1317 16.7439 8.32426C16.5513 8.51682 16.2902 8.625 16.0179 8.625H11.0893C10.8986 8.625 10.7117 8.5719 10.5495 8.47165C10.3873 8.3714 10.2562 8.22796 10.1709 8.05741C10.0856 7.88685 10.0495 7.69592 10.0666 7.506C10.0838 7.31609 10.1534 7.13469 10.2679 6.98214L13.9643 2.05357H11.0893C10.817 2.05357 10.5558 1.94539 10.3632 1.75283C10.1707 1.56027 10.0625 1.29911 10.0625 1.02679ZM0 8.21429C0 7.6475 0.46 7.1875 1.02679 7.1875H6.77679C6.96904 7.18754 7.15741 7.24155 7.32048 7.34338C7.48354 7.44522 7.61474 7.59079 7.69914 7.76352C7.78354 7.93626 7.81775 8.12922 7.79787 8.32044C7.77799 8.51166 7.70483 8.69346 7.58671 8.84514L3.12636 14.5804H6.77679C6.91163 14.5804 7.04514 14.6069 7.16972 14.6585C7.2943 14.7101 7.40749 14.7857 7.50283 14.8811C7.59818 14.9764 7.67381 15.0896 7.72541 15.2142C7.77701 15.3388 7.80357 15.4723 7.80357 15.6071C7.80357 15.742 7.77701 15.8755 7.72541 16.0001C7.67381 16.1247 7.59818 16.2378 7.50283 16.3332C7.40749 16.4285 7.2943 16.5042 7.16972 16.5558C7.04514 16.6074 6.91163 16.6339 6.77679 16.6339H1.02679C0.834535 16.6339 0.646157 16.5799 0.483093 16.478C0.32003 16.3762 0.188832 16.2306 0.104433 16.0579C0.0200348 15.8852 -0.0141736 15.6922 0.0057019 15.501C0.0255774 15.3098 0.0987384 15.128 0.216857 14.9763L4.67721 9.24107H1.02679C0.754465 9.24107 0.493298 9.13289 0.300739 8.94033C0.108179 8.74777 0 8.48661 0 8.21429ZM13.1429 11.9107C12.7616 11.9107 12.396 12.0622 12.1264 12.3317C11.8568 12.6013 11.7054 12.967 11.7054 13.3482C11.7054 13.7295 11.8568 14.0951 12.1264 14.3647C12.396 14.6343 12.7616 14.7857 13.1429 14.7857H16.7243L12.0208 20.6639C11.8515 20.8753 11.7453 21.1302 11.7146 21.3993C11.6838 21.6684 11.7297 21.9407 11.847 22.1849C11.9643 22.429 12.1481 22.6351 12.3774 22.7793C12.6067 22.9235 12.872 23 13.1429 23H19.7143C20.0955 23 20.4612 22.8485 20.7308 22.579C21.0003 22.3094 21.1518 21.9437 21.1518 21.5625C21.1518 21.1813 21.0003 20.8156 20.7308 20.546C20.4612 20.2765 20.0955 20.125 19.7143 20.125H16.1329L20.8364 14.2469C21.0057 14.0355 21.1118 13.7805 21.1426 13.5114C21.1733 13.2423 21.1274 12.97 21.0102 12.7258C20.8929 12.4817 20.709 12.2756 20.4798 12.1314C20.2505 11.9872 19.9851 11.9107 19.7143 11.9107H13.1429Z" fill="#469DFA"/>
</svg>
