<svg width="15" height="13" viewBox="0 0 15 13" fill="none" xmlns="http://www.w3.org/2000/svg">
<path d="M10.1557 0L9.27596 0.332031C8.28571 0.7055 7.6429 1.09172 7.21737 1.49441C6.87581 1.81718 6.62408 2.22324 6.4869 2.67272C6.38278 3.00741 6.34134 3.20184 6.27121 3.30384C6.20853 3.39309 6.10121 3.50041 5.7559 3.60241C5.75006 3.59816 5.70809 3.57159 5.70649 3.56947H5.69003C5.42792 3.40108 5.13413 3.28809 4.82674 3.23744C3.94274 3.08816 3.01731 3.47384 2.50253 4.29994L2.48553 4.31641C2.14444 4.89701 2.00439 5.57391 2.08709 6.24219C2.11418 6.45787 2.16837 6.67781 2.25337 6.88978C1.85889 6.91552 1.47683 7.03805 1.14095 7.24652C0.805067 7.455 0.525718 7.74301 0.327588 8.08509H0.311119C-0.336474 9.22834 0.0577132 10.7042 1.20734 11.3555H1.22434V11.3719C1.28437 11.4012 1.99199 11.7746 3.05024 12.1024C4.10849 12.4302 5.59015 12.75 7.43306 12.75C9.27596 12.75 10.7555 12.4429 11.8159 12.1189C12.864 11.7975 13.4532 11.4819 13.6588 11.3555L13.6752 11.339C14.8084 10.6808 15.1904 9.23259 14.5385 8.11803H14.555C14.2662 7.60204 13.7911 7.21601 13.2269 7.03906C13.2269 7.03694 13.2104 7.04119 13.2104 7.03906C13.1287 6.73927 12.9883 6.45868 12.7973 6.21356C12.6064 5.96843 12.3686 5.76364 12.098 5.61106C12.1707 5.37891 12.2143 5.10903 12.2143 4.78125C12.2143 4.165 11.9944 3.64597 11.6995 3.27038C11.4047 2.89478 11.0503 2.6435 10.7534 2.40709C10.4564 2.17069 10.2179 1.95288 10.0893 1.74303C9.96074 1.53372 9.89646 1.33397 9.97296 0.929688L10.1557 0ZM8.9604 1.69363C9.01034 1.91516 9.08471 2.13137 9.19309 2.30775C9.44384 2.71681 9.78012 2.97606 10.0893 3.22097C10.3985 3.46534 10.687 3.70016 10.8697 3.93444C11.0519 4.16925 11.1518 4.39344 11.1518 4.78125C11.1518 5.03625 11.1226 5.19191 11.0854 5.3125C9.63668 5.10106 8.36912 4.73556 7.43306 4.38281C7.24606 4.31216 7.08243 4.23778 6.91828 4.16712C7.00611 4.08814 7.08422 3.99897 7.15096 3.9015C7.38949 3.55459 7.42243 3.21884 7.49946 2.97181C7.57649 2.72478 7.66362 2.52769 7.94784 2.25781C8.11784 2.09578 8.59065 1.88594 8.9604 1.69309V1.69363ZM4.41131 4.233C4.64612 4.23141 4.88678 4.30419 5.10884 4.44922C5.40103 4.65269 6.0279 4.97197 7.06809 5.36244C8.39125 5.8602 9.76687 6.20544 11.1683 6.39147H11.1853C11.5545 6.43716 11.8594 6.65497 12.0486 6.97266C11.8594 7.00772 11.6645 7.05766 11.4838 7.13894C11.4573 7.15116 11.4281 7.14266 11.401 7.15488C11.3797 7.16125 11.376 7.16762 11.3675 7.17188C11.351 7.18038 11.3346 7.18038 11.3181 7.18834C11.3032 7.19472 11.2862 7.21331 11.2682 7.22181C11.2225 7.24235 11.1561 7.26998 11.0689 7.30469C10.8968 7.37747 10.6392 7.47097 10.305 7.57031C9.63668 7.76741 8.66556 7.96875 7.43306 7.96875C6.51771 7.96875 5.73571 7.86516 5.12531 7.73606C4.93406 7.69091 4.74971 7.64044 4.57759 7.58731C4.23121 7.47681 3.90928 7.31903 3.91353 7.32169C3.39874 6.97478 3.18943 6.55775 3.13312 6.10938C3.07734 5.661 3.20218 5.18394 3.39874 4.84766C3.6479 4.44709 4.02137 4.23725 4.41131 4.233ZM2.27037 7.93581C2.52324 7.91669 2.78887 7.97937 3.03378 8.11803C3.03803 8.12016 3.04599 8.13291 3.05024 8.13503C3.07946 8.15097 3.11665 8.16797 3.15012 8.18444C3.21653 8.22003 3.29303 8.25509 3.39874 8.30078C3.61054 8.39216 3.90379 8.49185 4.27849 8.59987C4.41131 8.63706 4.57334 8.6785 4.72687 8.71569C4.78318 8.73056 4.83471 8.75128 4.89315 8.76562C4.89899 8.76775 4.90378 8.7635 4.90962 8.76562C5.12106 8.81981 5.3309 8.86709 5.54074 8.89844V8.88197C6.16642 8.98295 6.79928 9.03288 7.43306 9.03125C8.77978 9.03125 9.85503 8.80494 10.6041 8.58288C10.9797 8.47131 11.2804 8.35284 11.4838 8.26784C11.5582 8.23597 11.6002 8.20728 11.6501 8.18444H11.6995L11.7165 8.16797L11.8159 8.11803C12.4757 7.76528 13.2683 7.97459 13.6423 8.63281V8.64928C14.0052 9.26978 13.7958 10.073 13.144 10.4423H13.1275V10.4592C13.0861 10.4837 12.4884 10.8099 11.5168 11.1063C10.5462 11.4033 9.15962 11.6875 7.43306 11.6875C5.70649 11.6875 4.32259 11.4075 3.34881 11.1063C2.38831 10.8077 1.90699 10.5358 1.72212 10.4423C1.71362 10.438 1.71149 10.43 1.70565 10.4258C1.07028 10.0502 0.873182 9.26553 1.24081 8.61634C1.42515 8.30716 1.7014 8.07659 2.02068 7.98522C2.10196 7.96238 2.18537 7.94166 2.27037 7.93581Z" fill="#469DFA"/>
</svg>
