<svg width="17" height="17" viewBox="0 0 17 17" fill="none" xmlns="http://www.w3.org/2000/svg">
<path d="M8.25 0C8.44891 0 8.63968 0.0790176 8.78033 0.21967C8.92098 0.360322 9 0.551088 9 0.75V2.25C9 2.44891 8.92098 2.63968 8.78033 2.78033C8.63968 2.92098 8.44891 3 8.25 3C8.05109 3 7.86032 2.92098 7.71967 2.78033C7.57902 2.63968 7.5 2.44891 7.5 2.25V0.75C7.5 0.551088 7.57902 0.360322 7.71967 0.21967C7.86032 0.0790176 8.05109 0 8.25 0ZM8.25 13.5C8.44891 13.5 8.63968 13.579 8.78033 13.7197C8.92098 13.8603 9 14.0511 9 14.25V15.75C9 15.9489 8.92098 16.1397 8.78033 16.2803C8.63968 16.421 8.44891 16.5 8.25 16.5C8.05109 16.5 7.86032 16.421 7.71967 16.2803C7.57902 16.1397 7.5 15.9489 7.5 15.75V14.25C7.5 14.0511 7.57902 13.8603 7.71967 13.7197C7.86032 13.579 8.05109 13.5 8.25 13.5ZM0 8.25C0 8.05109 0.0790176 7.86032 0.21967 7.71967C0.360322 7.57902 0.551088 7.5 0.75 7.5H2.25C2.44891 7.5 2.63968 7.57902 2.78033 7.71967C2.92098 7.86032 3 8.05109 3 8.25C3 8.44891 2.92098 8.63968 2.78033 8.78033C2.63968 8.92098 2.44891 9 2.25 9H0.75C0.551088 9 0.360322 8.92098 0.21967 8.78033C0.0790176 8.63968 0 8.44891 0 8.25ZM13.5 8.25C13.5 8.05109 13.579 7.86032 13.7197 7.71967C13.8603 7.57902 14.0511 7.5 14.25 7.5H15.75C15.9489 7.5 16.1397 7.57902 16.2803 7.71967C16.421 7.86032 16.5 8.05109 16.5 8.25C16.5 8.44891 16.421 8.63968 16.2803 8.78033C16.1397 8.92098 15.9489 9 15.75 9H14.25C14.0511 9 13.8603 8.92098 13.7197 8.78033C13.579 8.63968 13.5 8.44891 13.5 8.25ZM4.53525 11.9647C4.67585 12.1054 4.75484 12.2961 4.75484 12.495C4.75484 12.6939 4.67585 12.8846 4.53525 13.0253L3.47775 14.0828C3.40857 14.1544 3.32581 14.2115 3.2343 14.2508C3.1428 14.2901 3.04439 14.3108 2.9448 14.3117C2.84522 14.3126 2.74646 14.2936 2.65428 14.2559C2.56211 14.2182 2.47837 14.1625 2.40795 14.092C2.33753 14.0216 2.28184 13.9379 2.24413 13.8457C2.20642 13.7535 2.18745 13.6548 2.18831 13.5552C2.18918 13.4556 2.20987 13.3572 2.24917 13.2657C2.28848 13.1742 2.34562 13.0914 2.41725 13.0223L3.47475 11.9647C3.6154 11.8241 3.80613 11.7452 4.005 11.7452C4.20387 11.7452 4.3946 11.8241 4.53525 11.9647ZM14.0828 2.41725C14.2234 2.5579 14.3023 2.74863 14.3023 2.9475C14.3023 3.14637 14.2234 3.3371 14.0828 3.47775L13.0253 4.53525C12.9561 4.60688 12.8733 4.66402 12.7818 4.70333C12.6903 4.74263 12.5919 4.76332 12.4923 4.76419C12.3927 4.76505 12.294 4.74608 12.2018 4.70837C12.1096 4.67066 12.0259 4.61497 11.9555 4.54455C11.885 4.47413 11.8293 4.39039 11.7916 4.29822C11.7539 4.20604 11.7349 4.10728 11.7358 4.0077C11.7367 3.90811 11.7574 3.8097 11.7967 3.7182C11.836 3.62669 11.8931 3.54394 11.9647 3.47475L13.0223 2.41725C13.1629 2.27665 13.3536 2.19766 13.5525 2.19766C13.7514 2.19766 13.9421 2.27665 14.0828 2.41725ZM11.9647 11.9647C12.1054 11.8241 12.2961 11.7452 12.495 11.7452C12.6939 11.7452 12.8846 11.8241 13.0253 11.9647L14.0828 13.0223C14.1544 13.0914 14.2115 13.1742 14.2508 13.2657C14.2901 13.3572 14.3108 13.4556 14.3117 13.5552C14.3126 13.6548 14.2936 13.7535 14.2559 13.8457C14.2182 13.9379 14.1625 14.0216 14.092 14.092C14.0216 14.1625 13.9379 14.2182 13.8457 14.2559C13.7535 14.2936 13.6548 14.3126 13.5552 14.3117C13.4556 14.3108 13.3572 14.2901 13.2657 14.2508C13.1742 14.2115 13.0914 14.1544 13.0223 14.0828L11.9647 13.0253C11.8241 12.8846 11.7452 12.6939 11.7452 12.495C11.7452 12.2961 11.8241 12.1054 11.9647 11.9647ZM2.41725 2.41725C2.5579 2.27665 2.74863 2.19766 2.9475 2.19766C3.14637 2.19766 3.3371 2.27665 3.47775 2.41725L4.53525 3.47475C4.67187 3.6162 4.74746 3.80565 4.74576 4.0023C4.74405 4.19895 4.66517 4.38706 4.52611 4.52611C4.38706 4.66517 4.19895 4.74405 4.0023 4.74576C3.80565 4.74746 3.6162 4.67187 3.47475 4.53525L2.41725 3.47775C2.27665 3.3371 2.19766 3.14637 2.19766 2.9475C2.19766 2.74863 2.27665 2.5579 2.41725 2.41725ZM8.25 11.25C9.04565 11.25 9.80871 10.9339 10.3713 10.3713C10.9339 9.80871 11.25 9.04565 11.25 8.25C11.25 7.45435 10.9339 6.69129 10.3713 6.12868C9.80871 5.56607 9.04565 5.25 8.25 5.25C7.45435 5.25 6.69129 5.56607 6.12868 6.12868C5.56607 6.69129 5.25 7.45435 5.25 8.25C5.25 9.04565 5.56607 9.80871 6.12868 10.3713C6.69129 10.9339 7.45435 11.25 8.25 11.25Z" fill="#469DFA"/>
</svg>
