<svg width="18" height="18" viewBox="0 0 18 18" fill="none" xmlns="http://www.w3.org/2000/svg">
<path d="M13.8281 4.08816C13.8281 4.08816 13.4673 5.959 11.3781 8.04733C9.29061 10.1357 7.41978 10.4957 7.41978 10.4957M15.9639 12.6315C15.5432 13.0523 15.0437 13.3862 14.4939 13.6139C13.9441 13.8417 13.3549 13.9589 12.7598 13.9589C12.1647 13.9589 11.5754 13.8417 11.0257 13.6139C10.4759 13.3862 9.97635 13.0523 9.55561 12.6315L5.28395 8.35983C4.86322 7.93905 4.5295 7.43953 4.30183 6.88978C4.07415 6.34003 3.95699 5.75082 3.95703 5.15579C3.95711 3.95407 4.43456 2.8016 5.28436 1.95191C6.13416 1.10223 7.28669 0.624922 8.48841 0.625C9.69012 0.625078 10.8426 1.10253 11.6923 1.95233L15.9631 6.224C16.384 6.64474 16.7178 7.14426 16.9456 7.69404C17.1733 8.24382 17.2905 8.83308 17.2905 9.42816C17.2905 10.0233 17.1733 10.6125 16.9456 11.1623C16.7178 11.7121 16.384 12.2116 15.9631 12.6323L15.9639 12.6315Z" stroke="#469DFA" stroke-width="1.25"/>
<path d="M11.041 4.37561L9.79102 3.12561" stroke="#469DFA" stroke-width="1.25" stroke-linecap="round"/>
<path d="M4.56557 7.40479C3.68649 7.59538 2.8751 8.01958 2.21693 8.6327C1.55875 9.24581 1.07816 10.0251 0.825803 10.8885C0.573447 11.7519 0.558674 12.6674 0.783041 13.5384C1.00741 14.4095 1.4626 15.2039 2.10066 15.8379C2.73871 16.472 3.53598 16.9221 4.40846 17.141C5.28093 17.3599 6.19628 17.3393 7.05805 17.0815C7.91982 16.8237 8.69608 16.3382 9.30502 15.6761C9.91397 15.0141 10.333 14.2001 10.5181 13.3198" stroke="#469DFA" stroke-width="1.25"/>
</svg>
