<svg width="23" height="23" viewBox="0 0 23 23" fill="none" xmlns="http://www.w3.org/2000/svg">
<path fill-rule="evenodd" clip-rule="evenodd" d="M11.5 20.125V14.375H12.9375V20.125H20.125V7.18752H21.5625V20.125C21.5625 20.5063 21.411 20.8719 21.1415 21.1415C20.8719 21.4111 20.5062 21.5625 20.125 21.5625H2.875C2.49375 21.5625 2.12812 21.4111 1.85853 21.1415C1.58895 20.8719 1.4375 20.5063 1.4375 20.125V17.25H2.875V20.125H11.5ZM18.4762 5.54014L14.1651 9.85264C14.3957 10.3327 14.4405 10.881 14.2909 11.3921C14.1413 11.9032 13.8079 12.3408 13.3548 12.6207C12.9018 12.9006 12.3612 13.003 11.8372 12.9081C11.3132 12.8131 10.8428 12.5277 10.5168 12.1066L6.61538 13.4061L5.75 13.6951C5.74093 14.2037 5.55233 14.6927 5.21754 15.0757C4.88275 15.4587 4.42333 15.711 3.9205 15.788C3.41766 15.865 2.90379 15.7618 2.46973 15.4965C2.03566 15.2313 1.70936 14.8211 1.54849 14.3385C1.38763 13.8559 1.40257 13.332 1.59066 12.8593C1.77876 12.3867 2.1279 11.9958 2.57637 11.7557C3.02484 11.5156 3.54376 11.4418 4.04139 11.5473C4.53902 11.6528 4.98332 11.9309 5.29575 12.3323L10.0625 10.7425C10.0689 10.3815 10.1658 10.028 10.3444 9.71428C10.5229 9.40055 10.7774 9.13667 11.0844 8.94682C11.3914 8.75697 11.7412 8.64724 12.1016 8.62769C12.462 8.60813 12.8216 8.67938 13.1474 8.83489L17.4599 4.52239C17.2406 4.0634 17.1907 3.54169 17.3189 3.04946C17.4472 2.55722 17.7453 2.12617 18.1606 1.83248C18.5759 1.5388 19.0817 1.40139 19.5885 1.44455C20.0953 1.4877 20.5706 1.70864 20.9303 2.06832C21.2899 2.428 21.5109 2.90325 21.554 3.41008C21.5972 3.9169 21.4598 4.42267 21.1661 4.83798C20.8724 5.25329 20.4414 5.55141 19.9491 5.67963C19.4569 5.80786 18.9352 5.75794 18.4762 5.5387" fill="#469DFA"/>
</svg>
