<svg width="20" height="20" viewBox="0 0 20 20" fill="none" xmlns="http://www.w3.org/2000/svg">
<path d="M15.25 7.75C16.1783 7.75 17.0685 7.38125 17.7249 6.72487C18.3813 6.0685 18.75 5.17826 18.75 4.25C18.75 3.32174 18.3813 2.4315 17.7249 1.77513C17.0685 1.11875 16.1783 0.75 15.25 0.75C14.3217 0.75 13.4315 1.11875 12.7751 1.77513C12.1187 2.4315 11.75 3.32174 11.75 4.25M15.25 7.75C14.3217 7.75 13.4315 7.38125 12.7751 6.72487C12.1187 6.0685 11.75 5.17826 11.75 4.25M15.25 7.75V11.75M11.75 4.25H7.75M7.75 4.25C7.75 2.6 7.75 1.775 7.237 1.263C6.725 0.75 5.9 0.75 4.25 0.75C2.6 0.75 1.775 0.75 1.263 1.263C0.75 1.775 0.75 2.6 0.75 4.25C0.75 5.9 0.75 6.725 1.263 7.237C1.775 7.75 2.6 7.75 4.25 7.75C5.9 7.75 6.725 7.75 7.237 7.237C7.75 6.725 7.75 5.9 7.75 4.25ZM7.75 15.25C7.75 13.6 7.75 12.775 7.237 12.263C6.725 11.75 5.9 11.75 4.25 11.75C2.6 11.75 1.775 11.75 1.263 12.263C0.75 12.775 0.75 13.6 0.75 15.25C0.75 16.9 0.75 17.725 1.263 18.237C1.775 18.75 2.6 18.75 4.25 18.75C5.9 18.75 6.725 18.75 7.237 18.237C7.75 17.725 7.75 16.9 7.75 15.25ZM7.75 15.25H11.75M11.75 15.25C11.75 13.6 11.75 12.775 12.263 12.263C12.775 11.75 13.6 11.75 15.25 11.75M11.75 15.25C11.75 16.9 11.75 17.725 12.263 18.237C12.775 18.75 13.6 18.75 15.25 18.75C16.9 18.75 17.725 18.75 18.237 18.237C18.75 17.725 18.75 16.9 18.75 15.25C18.75 13.6 18.75 12.775 18.237 12.263C17.725 11.75 16.9 11.75 15.25 11.75" stroke="#469DFA" stroke-width="1.5" stroke-linecap="round" stroke-linejoin="round"/>
</svg>
