<svg width="25" height="18" viewBox="0 0 25 18" fill="none" xmlns="http://www.w3.org/2000/svg">
<path d="M0.75 9.54775V7.95225C0.75 4.69028 0.75 3.05873 1.76972 2.00972C2.79056 0.959578 4.39732 0.914507 7.60972 0.823239C9.13084 0.780423 10.6858 0.75 12.0176 0.75C13.3494 0.75 14.9032 0.780423 16.4255 0.823239C19.6379 0.914507 21.2446 0.959578 22.2644 2.00972C23.2841 3.05986 23.2852 4.69141 23.2852 7.95225V9.54662C23.2852 12.8097 23.2852 14.4401 22.2655 15.4903C21.2446 16.5393 19.639 16.5855 16.4255 16.6756C14.9044 16.7196 13.3494 16.75 12.0176 16.75C10.6858 16.75 9.13197 16.7196 7.60972 16.6756C4.39732 16.5855 2.79056 16.5404 1.76972 15.4903C0.748873 14.4401 0.75 12.8086 0.75 9.54775Z" stroke="#475467" stroke-width="1.5"/>
</svg>
